<svg xmlns="http://www.w3.org/2000/svg" width="1200" height="630" viewBox="0 0 1200 630">
  <defs>
    <linearGradient id="bg" x1="0" y1="0" x2="1" y2="1">
      <stop offset="0%" stop-color="#302318"/>
      <stop offset="100%" stop-color="#1a120b"/>
    </linearGradient>
  </defs>
  <rect width="1200" height="630" fill="url(#bg)"/>
  <!-- Decorative border -->
  <rect x="24" y="24" width="1152" height="582" rx="12" fill="none" stroke="#5c4a38" stroke-width="1"/>
  <rect x="32" y="32" width="1136" height="566" rx="8" fill="none" stroke="#a0592a" stroke-width="1.5"/>
  <!-- Book icon -->
  <g transform="translate(556,160)" fill="none" stroke="#c8844a" stroke-width="3" stroke-linecap="round" stroke-linejoin="round">
    <path d="M2 4 C2 4 6 2 44 2 C82 2 86 4 86 4 L86 72 C86 72 82 70 44 70 C6 70 2 72 2 72 Z"/>
    <path d="M44 2 L44 70"/>
    <path d="M44 2 C44 2 48 4 86 4"/>
  </g>
  <!-- Title -->
  <text x="600" y="310" text-anchor="middle" font-family="Georgia,Lora,serif" font-size="64" font-weight="700" fill="#f4ebdb">Bookshelf</text>
  <!-- Tagline -->
  <text x="600" y="370" text-anchor="middle" font-family="Helvetica,Inter,sans-serif" font-size="24" fill="#c8844a">Your reading life, beautifully organized.</text>
  <!-- Accent line -->
  <line x1="480" y1="400" x2="720" y2="400" stroke="#a0592a" stroke-width="1.5" opacity="0.6"/>
  <!-- URL -->
  <text x="600" y="540" text-anchor="middle" font-family="Helvetica,Inter,sans-serif" font-size="18" fill="#8a7a66">bookshelf-clonecore.vercel.app</text>
</svg>
