<svg xmlns="http://www.w3.org/2000/svg" viewBox="0 0 120 120" fill="none">
  <circle cx="60" cy="60" r="60" fill="#9B7E6A"/>
  <!-- Ears -->
  <path d="M30 42 L40 20 L52 44Z" fill="#fff" opacity="0.9"/>
  <path d="M68 44 L80 20 L90 42Z" fill="#fff" opacity="0.9"/>
  <path d="M36 40 L42 26 L50 42Z" fill="#9B7E6A"/>
  <path d="M70 42 L78 26 L84 40Z" fill="#9B7E6A"/>
  <!-- Face -->
  <ellipse cx="60" cy="62" rx="26" ry="22" fill="#fff" opacity="0.9"/>
  <!-- Eyes -->
  <ellipse cx="48" cy="58" rx="5" ry="6" fill="#5C4A3B"/>
  <ellipse cx="72" cy="58" rx="5" ry="6" fill="#5C4A3B"/>
  <ellipse cx="49" cy="56" rx="2" ry="2" fill="#fff"/>
  <ellipse cx="73" cy="56" rx="2" ry="2" fill="#fff"/>
  <!-- Nose -->
  <path d="M57 66 L60 70 L63 66Z" fill="#D4868A"/>
  <!-- Mouth -->
  <path d="M60 70 Q55 76 50 72" stroke="#9B7E6A" stroke-width="1.5" fill="none" stroke-linecap="round"/>
  <path d="M60 70 Q65 76 70 72" stroke="#9B7E6A" stroke-width="1.5" fill="none" stroke-linecap="round"/>
  <!-- Whiskers -->
  <line x1="26" y1="62" x2="44" y2="66" stroke="#fff" stroke-width="1.5" opacity="0.7"/>
  <line x1="26" y1="68" x2="44" y2="68" stroke="#fff" stroke-width="1.5" opacity="0.7"/>
  <line x1="26" y1="74" x2="44" y2="70" stroke="#fff" stroke-width="1.5" opacity="0.7"/>
  <line x1="94" y1="62" x2="76" y2="66" stroke="#fff" stroke-width="1.5" opacity="0.7"/>
  <line x1="94" y1="68" x2="76" y2="68" stroke="#fff" stroke-width="1.5" opacity="0.7"/>
  <line x1="94" y1="74" x2="76" y2="70" stroke="#fff" stroke-width="1.5" opacity="0.7"/>
</svg>
