<svg xmlns="http://www.w3.org/2000/svg" viewBox="0 0 120 120" fill="none">
  <circle cx="60" cy="60" r="60" fill="#6B4F3A"/>
  <!-- Steam -->
  <path d="M42 34 Q44 26 42 18" stroke="#fff" stroke-width="2.5" fill="none" stroke-linecap="round" opacity="0.6"/>
  <path d="M54 30 Q56 22 54 14" stroke="#fff" stroke-width="2.5" fill="none" stroke-linecap="round" opacity="0.5"/>
  <path d="M66 34 Q68 26 66 18" stroke="#fff" stroke-width="2.5" fill="none" stroke-linecap="round" opacity="0.6"/>
  <!-- Cup body -->
  <rect x="30" y="42" width="48" height="40" rx="4" fill="#fff" opacity="0.9"/>
  <!-- Coffee fill -->
  <rect x="34" y="50" width="40" height="28" rx="2" fill="#8B6242"/>
  <!-- Handle -->
  <path d="M78 50 Q94 50 94 62 Q94 74 78 74" stroke="#fff" stroke-width="4" fill="none" stroke-linecap="round" opacity="0.9"/>
  <!-- Saucer -->
  <ellipse cx="54" cy="88" rx="30" ry="6" fill="#fff" opacity="0.7"/>
  <!-- Heart in foam -->
  <path d="M48 54 Q48 50 52 50 Q54 50 54 53 Q54 50 56 50 Q60 50 60 54 Q60 60 54 64 Q48 60 48 54Z" fill="#fff" opacity="0.5"/>
</svg>
