<svg xmlns="http://www.w3.org/2000/svg" viewBox="0 0 120 120" fill="none">
  <circle cx="60" cy="60" r="60" fill="#C4784A"/>
  <!-- Ears -->
  <path d="M28 48 L38 18 L52 46Z" fill="#fff" opacity="0.9"/>
  <path d="M68 46 L82 18 L92 48Z" fill="#fff" opacity="0.9"/>
  <path d="M34 46 L40 26 L50 46Z" fill="#C4784A"/>
  <path d="M70 46 L80 26 L86 46Z" fill="#C4784A"/>
  <!-- Face -->
  <path d="M34 52 Q60 50 86 52 Q88 72 60 90 Q32 72 34 52Z" fill="#fff" opacity="0.9"/>
  <!-- White cheeks -->
  <path d="M38 60 Q48 60 52 72 Q48 80 42 82 Q34 76 38 60Z" fill="#fff"/>
  <path d="M82 60 Q72 60 68 72 Q72 80 78 82 Q86 76 82 60Z" fill="#fff"/>
  <!-- Eyes -->
  <ellipse cx="47" cy="58" rx="5" ry="5.5" fill="#5C3A1E"/>
  <ellipse cx="73" cy="58" rx="5" ry="5.5" fill="#5C3A1E"/>
  <circle cx="48" cy="56" r="2" fill="#fff"/>
  <circle cx="74" cy="56" r="2" fill="#fff"/>
  <!-- Nose -->
  <ellipse cx="60" cy="72" rx="5" ry="3.5" fill="#3D2817"/>
  <!-- Mouth -->
  <path d="M60 75 Q56 80 52 78" stroke="#7C5A3B" stroke-width="1.5" fill="none" stroke-linecap="round"/>
  <path d="M60 75 Q64 80 68 78" stroke="#7C5A3B" stroke-width="1.5" fill="none" stroke-linecap="round"/>
</svg>
