<svg xmlns="http://www.w3.org/2000/svg" viewBox="0 0 120 120" fill="none">
  <circle cx="60" cy="60" r="60" fill="#6A8E5F"/>
  <!-- Open book -->
  <path d="M30 78 L60 72 L90 78 L90 92 L60 86 L30 92Z" fill="#fff" opacity="0.85"/>
  <line x1="60" y1="72" x2="60" y2="86" stroke="#6A8E5F" stroke-width="1" opacity="0.4"/>
  <line x1="38" y1="80" x2="56" y2="76" stroke="#6A8E5F" stroke-width="0.8" opacity="0.2"/>
  <line x1="38" y1="84" x2="56" y2="80" stroke="#6A8E5F" stroke-width="0.8" opacity="0.2"/>
  <line x1="64" y1="76" x2="82" y2="80" stroke="#6A8E5F" stroke-width="0.8" opacity="0.2"/>
  <line x1="64" y1="80" x2="82" y2="84" stroke="#6A8E5F" stroke-width="0.8" opacity="0.2"/>
  <!-- Stem -->
  <path d="M60 72 Q58 56 60 40" stroke="#fff" stroke-width="2.5" fill="none" stroke-linecap="round"/>
  <!-- Leaves -->
  <path d="M60 56 Q46 46 50 34 Q60 40 60 56Z" fill="#fff" opacity="0.8"/>
  <path d="M60 48 Q74 38 70 26 Q60 32 60 48Z" fill="#fff" opacity="0.7"/>
  <!-- Small leaf -->
  <path d="M60 64 Q50 58 52 50 Q58 54 60 64Z" fill="#fff" opacity="0.6"/>
</svg>
